<svg width="234" height="56" viewBox="0 0 234 56" fill="none" xmlns="http://www.w3.org/2000/svg">
<path d="M7.236 37L0.27 18.1H2.322L8.208 34.489L14.094 18.1H16.146L9.18 37H7.236ZM30.7368 18.1H32.6268V37H31.0068L20.4768 21.61V37H18.5868V18.1H20.2068L30.7368 33.49V18.1Z" fill="#1071FF"/>
<path d="M46.0643 18.1V34.624H54.2183V37H43.5533V18.1H46.0643ZM67.3606 35.299C65.9926 36.667 64.3096 37.351 62.3116 37.351C60.3136 37.351 58.6306 36.667 57.2626 35.299C55.8946 33.931 55.2106 32.248 55.2106 30.25C55.2106 28.252 55.8946 26.569 57.2626 25.201C58.6306 23.833 60.3136 23.149 62.3116 23.149C64.3096 23.149 65.9926 23.833 67.3606 25.201C68.7466 26.587 69.4396 28.27 69.4396 30.25C69.4396 32.23 68.7466 33.913 67.3606 35.299ZM62.3116 35.056C63.6616 35.056 64.7956 34.597 65.7136 33.679C66.6316 32.761 67.0906 31.618 67.0906 30.25C67.0906 28.882 66.6316 27.739 65.7136 26.821C64.7956 25.903 63.6616 25.444 62.3116 25.444C60.9796 25.444 59.8546 25.903 58.9366 26.821C58.0186 27.739 57.5596 28.882 57.5596 30.25C57.5596 31.618 58.0186 32.761 58.9366 33.679C59.8546 34.597 60.9796 35.056 62.3116 35.056ZM83.4138 25.822V23.5H85.7358V36.433C85.7358 38.431 85.0608 39.979 83.7108 41.077C82.3428 42.193 80.7228 42.751 78.8508 42.751C77.3388 42.751 76.0338 42.463 74.9358 41.887C73.8378 41.329 73.0098 40.519 72.4518 39.457L74.5038 38.296C75.2418 39.808 76.7088 40.564 78.9048 40.564C80.3088 40.564 81.4068 40.195 82.1988 39.457C83.0088 38.719 83.4138 37.711 83.4138 36.433V34.516C82.2258 36.316 80.5338 37.216 78.3378 37.216C76.3938 37.216 74.7648 36.532 73.4508 35.164C72.1188 33.778 71.4528 32.113 71.4528 30.169C71.4528 28.225 72.1188 26.569 73.4508 25.201C74.7648 23.833 76.3938 23.149 78.3378 23.149C80.5518 23.149 82.2438 24.04 83.4138 25.822ZM83.4138 30.169C83.4138 28.819 82.9548 27.685 82.0368 26.767C81.1188 25.849 79.9758 25.39 78.6078 25.39C77.2398 25.39 76.0968 25.849 75.1788 26.767C74.2608 27.685 73.8018 28.819 73.8018 30.169C73.8018 31.537 74.2608 32.68 75.1788 33.598C76.0968 34.516 77.2398 34.975 78.6078 34.975C79.9758 34.975 81.1188 34.516 82.0368 33.598C82.9548 32.68 83.4138 31.537 83.4138 30.169ZM90.4827 21.043C90.0327 21.043 89.6547 20.89 89.3487 20.584C89.0427 20.278 88.8897 19.909 88.8897 19.477C88.8897 19.045 89.0427 18.676 89.3487 18.37C89.6547 18.046 90.0327 17.884 90.4827 17.884C90.9147 17.884 91.2837 18.046 91.5897 18.37C91.8957 18.676 92.0487 19.045 92.0487 19.477C92.0487 19.909 91.8957 20.278 91.5897 20.584C91.2837 20.89 90.9147 21.043 90.4827 21.043ZM91.6437 37H89.2947V23.5H91.6437V37ZM97.2259 27.145C97.2259 28.009 98.1169 28.684 99.8989 29.17C100.565 29.314 101.123 29.467 101.573 29.629C102.041 29.773 102.545 29.998 103.085 30.304C103.643 30.61 104.066 31.015 104.354 31.519C104.642 32.023 104.786 32.617 104.786 33.301C104.786 34.525 104.309 35.506 103.355 36.244C102.401 36.982 101.195 37.351 99.7369 37.351C98.4409 37.351 97.3159 37.072 96.3619 36.514C95.4259 35.938 94.7599 35.164 94.3639 34.192L96.3889 33.031C96.6049 33.679 97.0099 34.192 97.6039 34.57C98.1979 34.948 98.9089 35.137 99.7369 35.137C100.547 35.137 101.195 34.984 101.681 34.678C102.167 34.372 102.41 33.913 102.41 33.301C102.41 32.383 101.519 31.717 99.7369 31.303C99.1429 31.141 98.6929 31.015 98.3869 30.925C98.0809 30.835 97.6579 30.673 97.1179 30.439C96.5959 30.205 96.1999 29.962 95.9299 29.71C95.6599 29.44 95.4079 29.089 95.1739 28.657C94.9579 28.207 94.8499 27.712 94.8499 27.172C94.8499 26.002 95.2999 25.039 96.1999 24.283C97.1179 23.527 98.2609 23.149 99.6289 23.149C100.727 23.149 101.699 23.401 102.545 23.905C103.409 24.391 104.057 25.075 104.489 25.957L102.518 27.064C102.032 25.912 101.069 25.336 99.6289 25.336C98.9449 25.336 98.3689 25.498 97.9009 25.822C97.4509 26.146 97.2259 26.587 97.2259 27.145ZM114.384 23.5V25.768H110.793V33.085C110.793 33.751 110.919 34.228 111.171 34.516C111.441 34.786 111.846 34.93 112.386 34.948C112.926 34.948 113.592 34.93 114.384 34.894V37C112.314 37.27 110.802 37.099 109.848 36.487C108.912 35.875 108.444 34.741 108.444 33.085V25.768H105.771V23.5H108.444V20.422L110.793 19.72V23.5H114.384ZM118.353 21.043C117.903 21.043 117.525 20.89 117.219 20.584C116.913 20.278 116.76 19.909 116.76 19.477C116.76 19.045 116.913 18.676 117.219 18.37C117.525 18.046 117.903 17.884 118.353 17.884C118.785 17.884 119.154 18.046 119.46 18.37C119.766 18.676 119.919 19.045 119.919 19.477C119.919 19.909 119.766 20.278 119.46 20.584C119.154 20.89 118.785 21.043 118.353 21.043ZM119.514 37H117.165V23.5H119.514V37ZM129.442 37.351C127.408 37.351 125.716 36.676 124.366 35.326C123.016 33.958 122.341 32.266 122.341 30.25C122.341 28.234 123.016 26.551 124.366 25.201C125.716 23.833 127.408 23.149 129.442 23.149C130.774 23.149 131.971 23.473 133.033 24.121C134.095 24.751 134.887 25.606 135.409 26.686L133.438 27.82C133.096 27.1 132.565 26.524 131.845 26.092C131.143 25.66 130.342 25.444 129.442 25.444C128.092 25.444 126.958 25.903 126.04 26.821C125.14 27.757 124.69 28.9 124.69 30.25C124.69 31.582 125.14 32.716 126.04 33.652C126.958 34.57 128.092 35.029 129.442 35.029C130.342 35.029 131.152 34.822 131.872 34.408C132.592 33.976 133.141 33.4 133.519 32.68L135.517 33.841C134.923 34.921 134.086 35.776 133.006 36.406C131.926 37.036 130.738 37.351 129.442 37.351ZM139.756 27.145C139.756 28.009 140.647 28.684 142.429 29.17C143.095 29.314 143.653 29.467 144.103 29.629C144.571 29.773 145.075 29.998 145.615 30.304C146.173 30.61 146.596 31.015 146.884 31.519C147.172 32.023 147.316 32.617 147.316 33.301C147.316 34.525 146.839 35.506 145.885 36.244C144.931 36.982 143.725 37.351 142.267 37.351C140.971 37.351 139.846 37.072 138.892 36.514C137.956 35.938 137.29 35.164 136.894 34.192L138.919 33.031C139.135 33.679 139.54 34.192 140.134 34.57C140.728 34.948 141.439 35.137 142.267 35.137C143.077 35.137 143.725 34.984 144.211 34.678C144.697 34.372 144.94 33.913 144.94 33.301C144.94 32.383 144.049 31.717 142.267 31.303C141.673 31.141 141.223 31.015 140.917 30.925C140.611 30.835 140.188 30.673 139.648 30.439C139.126 30.205 138.73 29.962 138.46 29.71C138.19 29.44 137.938 29.089 137.704 28.657C137.488 28.207 137.38 27.712 137.38 27.172C137.38 26.002 137.83 25.039 138.73 24.283C139.648 23.527 140.791 23.149 142.159 23.149C143.257 23.149 144.229 23.401 145.075 23.905C145.939 24.391 146.587 25.075 147.019 25.957L145.048 27.064C144.562 25.912 143.599 25.336 142.159 25.336C141.475 25.336 140.899 25.498 140.431 25.822C139.981 26.146 139.756 26.587 139.756 27.145Z" fill="black"/>
</svg>
